<svg width="512" height="512" xmlns="http://www.w3.org/2000/svg">

 <g>
  <title>background</title>
  <rect fill="none" id="canvas_background" height="602" width="802" y="-1" x="-1"/>
 </g>
 <g>
  <title>Layer 1</title>
  <polygon id="svg_1" fill="#bf0000" points="360.202,472.418 360.202,504.48 151.798,504.48 151.798,472.418 175.845,472.418   336.154,472.418 "/>
  <polygon id="svg_2" fill="#ff0000" points="320.124,376.233 336.154,472.418 175.845,472.418 191.876,376.233 "/>
  <polygon id="svg_3" fill="#ff0000" points="505.4800109863281,7.519999980926514 505.4800109863281,376.2330017089844 321.1239929199219,376.2330017089844 192.87600708007812,376.2330017089844 8.519999980926514,376.2330017089844 8.519999980926514,7.519999980926514 "/>
  <rect id="svg_4" fill="#bf0000" height="368.718" width="96.182" y="7.52" x="7.52"/>
  <rect id="svg_5" fill="#ffffff" height="240.461" width="432.836" y="39.582" x="39.582"/>
  <rect id="svg_6" fill="#e5e5e5" height="240.461" width="80.155" y="39.582" x="39.582"/>
  <path id="svg_7" fill="#D9EEF7" d="m256,312.108c8.817,0 16.031,7.214 16.031,16.031c0,8.817 -7.214,16.031 -16.031,16.031c-8.817,0 -16.031,-7.214 -16.031,-16.031c0,-8.817 7.214,-16.031 16.031,-16.031z"/>
  <g id="svg_8">
   <path id="svg_9" fill="#231F20" d="m512,0l-95.689,0l0,15.039l80.65,0l0,353.673l-481.922,0l0,-353.673l377.223,0l0,-15.039l-392.262,0l0,383.752l182.999,0l-13.525,81.146l-25.196,0l0,32.062l-16.526,0l0,15.04l256.496,0l0,-15.039l-16.526,0l0,-32.062l-25.196,0l-13.526,-81.146l182.998,0l0,-383.753l0.002,0zm-159.318,479.938l0,17.023l-193.364,0l0,-17.023l104.698,0l0,-15.039l-79.293,0l13.525,-81.146l50.234,0l0,24.542l15.039,0l0,-24.542l50.235,0l13.525,81.146l-39.216,0l0,15.039l64.617,0l0,0z"/>
   <polygon id="svg_10" fill="#231F20" points="479.938,32.062 32.062,32.062 32.062,287.566 143.783,287.566 143.783,272.526    47.102,272.526 47.102,47.102 464.898,47.102 464.898,272.526 167.83,272.526 167.83,287.566 479.938,287.566  "/>
  </g>
  <polygon id="svg_11" fill="#bf0000" points="79.163,79.164 103.705,79.164 103.705,64.124 64.123,64.124 64.123,111.721 79.163,111.721   "/>
  <g id="svg_12">
   <rect id="svg_13" fill="#231F20" height="16.031" width="15.039" y="127.755" x="64.123"/>
   <rect id="svg_14" fill="#231F20" height="16.031" width="15.039" y="424.324" x="248.482"/>
   <path id="svg_15" fill="#231F20" d="m232.449,328.139c0,12.986 10.565,23.551 23.55,23.551c12.986,0 23.551,-10.565 23.551,-23.551s-10.565,-23.551 -23.551,-23.551c-12.985,0.001 -23.55,10.565 -23.55,23.551zm32.062,0c0,4.693 -3.819,8.511 -8.511,8.511c-4.692,0 -8.51,-3.818 -8.51,-8.511c0,-4.693 3.818,-8.511 8.51,-8.511c4.692,0 8.511,3.818 8.511,8.511z"/>
   <rect id="svg_16" fill="#231F20" height="15.039" width="16.03" y="240.461" x="432.345"/>
  </g>
  <rect id="svg_17" fill="#FFFFFF" height="15.039" width="16.03" y="208.397" x="432.345"/>
  <rect id="svg_18" fill="#231F20" height="15.039" width="16.031" y="240.461" x="400.281"/>
  <g id="svg_19"/>
  <g id="svg_20"/>
  <g id="svg_21"/>
  <g id="svg_22"/>
  <g id="svg_23"/>
  <g id="svg_24"/>
  <g id="svg_25"/>
  <g id="svg_26"/>
  <g id="svg_27"/>
  <g id="svg_28"/>
  <g id="svg_29"/>
  <g id="svg_30"/>
  <g id="svg_31"/>
  <g id="svg_32"/>
  <g id="svg_33"/>
 </g>
</svg>