<svg width="512.001" height="512.001" xmlns="http://www.w3.org/2000/svg">

 <g>
  <title>background</title>
  <rect fill="none" id="canvas_background" height="602" width="802" y="-1" x="-1"/>
 </g>
 <g>
  <title>Layer 1</title>
  <polygon id="svg_1" fill="#ff0000" points="504.4800109863281,426.32598876953125 328.1400146484375,426.32598876953125 328.1400146484375,370.2170104980469 199.89199829101562,370.2170104980469 199.89199829101562,402.27899169921875 87.67500305175781,402.27899169921875 87.67500305175781,49.59700012207031 504.4800109863281,49.59700012207031 "/>
  <polygon id="svg_2" fill="#e5e5e5" points="87.675,400.279 87.675,504.481 47.598,504.481 47.598,39.582 7.52,39.582 7.52,7.52   87.675,7.52 87.675,47.597 "/>
  <rect id="svg_3" fill="#bf0000" height="352.686" width="64.124" y="47.595" x="87.67"/>
  <rect id="svg_4" fill="#e5e5e5" height="32.062" width="56.108" y="288.067" x="119.734"/>
  <path id="svg_5" fill="#b2b2b2" d="m344.17,87.676c66.368,0 120.233,53.864 120.233,120.233s-53.864,120.232 -120.233,120.232s-120.233,-53.864 -120.233,-120.233c0.002,-66.369 53.865,-120.232 120.233,-120.232zm80.156,120.231c0,-8.817 -7.214,-16.031 -16.031,-16.031l-48.093,0l0,-48.093c0,-8.817 -7.214,-16.031 -16.031,-16.031c-8.817,0 -16.031,7.214 -16.031,16.031l0,48.093l-48.093,0c-8.817,0 -16.031,7.214 -16.031,16.031c0,8.817 7.214,16.031 16.031,16.031l48.093,0l0,48.093c0,8.817 7.214,16.031 16.031,16.031c8.817,0 16.031,-7.214 16.031,-16.031l0,-48.093l48.093,0c8.817,0 16.031,-7.214 16.031,-16.031z"/>
  <path id="svg_6" fill="#7f7f7f" d="m408.295,191.876c8.817,0 16.031,7.214 16.031,16.031c0,8.817 -7.214,16.031 -16.031,16.031l-48.093,0l0,48.093c0,8.817 -7.214,16.031 -16.031,16.031c-8.817,0 -16.031,-7.214 -16.031,-16.031l0,-48.093l-48.093,0c-8.817,0 -16.031,-7.214 -16.031,-16.031c0,-8.817 7.214,-16.031 16.031,-16.031l48.093,0l0,-48.093c0,-8.817 7.214,-16.031 16.031,-16.031c8.817,0 16.031,7.214 16.031,16.031l0,48.093l48.093,0l0,0z"/>
  <g id="svg_7">
   <path id="svg_8" fill="#231F20" d="m456.387,40.078l0,15.039l40.574,0l0,329.626l-161.302,0l0,-9.007l80.651,0l0,-15.039l-264.512,0l0,15.039l40.574,0l0,17.023l-97.178,0l0,-337.642l337.147,0l0,-15.039l-337.147,0l0,-40.078l-95.194,0l0,47.102l40.078,0l0,40.574l15.039,0l0,-55.613l-40.078,0l0,-17.023l65.115,0l0,481.921l-25.036,0l0,-385.239l-15.04,0l0,400.278l55.117,0l0,-104.201l112.218,0l0,-32.062l113.208,0l0,56.108l191.38,0l0,-391.767l-55.614,0zm40.574,376.729l-161.302,0l0,-17.023l161.301,0l0,17.023l0.001,0z"/>
   <rect id="svg_9" fill="#231F20" height="15.039" width="16.03" y="360.697" x="119.734"/>
  </g>
  <rect id="svg_10" fill="#211d1e" height="15.039" width="16.031" y="360.697" x="432.345"/>
  <rect id="svg_11" fill="#231f20" height="15.039" width="16.031" y="360.697" x="464.399"/>
  <rect id="svg_12" fill="#FFFFFF" height="15.039" width="88.171" y="248.483" x="111.723"/>
  <rect id="svg_13" fill="#231F20" height="15.039" width="88.171" y="208.408" x="111.723"/>
  <rect id="svg_14" fill="#FFFFFF" height="15.039" width="88.171" y="168.322" x="111.723"/>
  <rect id="svg_15" fill="#231F20" height="15.039" width="88.171" y="128.247" x="111.723"/>
  <rect id="svg_16" fill="#FFFFFF" height="15.039" width="88.171" y="88.172" x="111.723"/>
  <g id="svg_17">
   <path id="svg_18" fill="#231F20" d="m344.171,80.156c-70.443,0 -127.752,57.309 -127.752,127.752c0,36.268 15.52,70.965 42.58,95.194l10.032,-11.204c-23.878,-21.38 -37.573,-51.992 -37.573,-83.99c0,-62.15 50.563,-112.713 112.713,-112.713c62.149,0 112.712,50.563 112.712,112.713s-50.562,112.712 -112.712,112.712c-18.319,0 -36.505,-4.499 -52.593,-13.009l-7.032,13.294c18.246,9.652 38.865,14.755 59.626,14.755c70.443,0 127.751,-57.309 127.751,-127.752s-57.31,-127.752 -127.752,-127.752z"/>
   <path id="svg_19" fill="#231F20" d="m344.171,120.233c-12.986,0 -23.551,10.565 -23.551,23.551l0,40.574l-40.574,0c-12.986,0 -23.551,10.565 -23.551,23.551s10.565,23.551 23.551,23.551l40.574,0l0,40.574c0,12.986 10.565,23.551 23.551,23.551c12.985,0 23.55,-10.565 23.55,-23.551l0,-40.574l40.574,0c12.986,0 23.551,-10.565 23.551,-23.551s-10.565,-23.551 -23.551,-23.551l-40.574,0l0,-40.574c0,-12.986 -10.564,-23.551 -23.55,-23.551zm64.124,79.163c4.693,0 8.511,3.818 8.511,8.511c0,4.693 -3.819,8.511 -8.511,8.511l-55.613,0l0,55.613c0,4.693 -3.818,8.511 -8.51,8.511c-4.692,0 -8.511,-3.818 -8.511,-8.511l0,-55.613l-55.613,0c-4.693,0 -8.511,-3.818 -8.511,-8.511c0,-4.693 3.819,-8.511 8.511,-8.511l55.613,0l0,-55.613c0,-4.693 3.819,-8.511 8.511,-8.511c4.692,0 8.51,3.818 8.51,8.511l0,55.613l55.613,0l0,0z"/>
   <path id="svg_20" fill="#231F20" d="m183.365,280.543l-71.148,0l0,47.102l71.148,0l0,-47.102zm-15.039,32.062l-41.069,0l0,-17.023l41.069,0l0,17.023z"/>
   <rect id="svg_21" fill="#231F20" height="15.039" width="16.03" y="88.172" x="215.927"/>
   <polygon id="svg_22" fill="#231F20" points="432.341,87.179 464.899,87.179 464.899,111.722 479.939,111.722 479.939,72.14    432.341,72.14  "/>
  </g>
  <g id="svg_23"/>
  <g id="svg_24"/>
  <g id="svg_25"/>
  <g id="svg_26"/>
  <g id="svg_27"/>
  <g id="svg_28"/>
  <g id="svg_29"/>
  <g id="svg_30"/>
  <g id="svg_31"/>
  <g id="svg_32"/>
  <g id="svg_33"/>
  <g id="svg_34"/>
  <g id="svg_35"/>
  <g id="svg_36"/>
  <g id="svg_37"/>
 </g>
</svg>