<svg width="512" height="512" xmlns="http://www.w3.org/2000/svg">

 <g>
  <title>background</title>
  <rect fill="none" id="canvas_background" height="602" width="802" y="-1" x="-1"/>
 </g>
 <g>
  <title>Layer 1</title>
  <path id="svg_1" fill="#e2e2e2" d="m464.403,464.403l35.349,35.348c-2.886,2.966 -6.893,4.729 -11.302,4.729l-464.899,0c-4.409,0 -8.416,-1.764 -11.302,-4.729l35.349,-35.348l416.805,0z"/>
  <path id="svg_2" fill="#e5e5e5" d="m504.48,23.551l0,464.898c0,4.409 -1.764,8.416 -4.729,11.302l-35.349,-35.348l0,-416.806l35.349,-35.349c2.966,2.887 4.729,6.894 4.729,11.303z"/>
  <path id="svg_3" fill="#e2e2e2" d="m499.752,13.249l-35.349,35.349l-416.806,0l-35.348,-35.349c2.886,-2.966 6.893,-4.729 11.302,-4.729l464.898,0c4.409,0 8.417,1.763 11.303,4.729z"/>
  <path id="svg_4" fill="#e2e2e2" d="m47.597,464.403l-35.349,35.348c-2.966,-2.886 -4.729,-6.893 -4.729,-11.302l0,-464.898c0,-4.409 1.764,-8.416 4.729,-11.302l35.349,35.349l0,416.805z"/>
  <rect id="svg_5" fill="#ff0000" height="416.804" width="416.804" y="47.595" x="48.595"/>
  <rect id="svg_6" fill="#bf0000" height="416.804" width="104.204" y="47.595" x="47.595"/>
  <rect id="svg_7" fill="#bf0000" height="32.062" width="272.525" y="119.734" x="119.734"/>
  <path id="svg_8" fill="#231F20" d="m512,23.55c0,-3.712 -0.851,-7.27 -2.449,-10.465l-0.566,-1.062c-1.051,-1.849 -2.357,-3.564 -3.914,-5.092c-1.527,-1.556 -3.242,-2.863 -5.089,-3.913l-1.064,-0.568c-3.199,-1.599 -6.757,-2.45 -10.469,-2.45l-312.603,0l0,15.039l310.48,0l-25.038,25.038l-410.576,0l-25.038,-25.038l126.124,0l0,-15.039l-128.247,0c-3.712,0 -7.27,0.851 -10.465,2.449l-1.064,0.568c-1.848,1.05 -3.562,2.357 -5.089,3.913c-1.557,1.528 -2.865,3.243 -3.914,5.092l-0.569,1.062c-1.599,3.197 -2.45,6.755 -2.45,10.466l0,464.899c0,3.712 0.851,7.27 2.449,10.466l0.567,1.062c1.051,1.849 2.357,3.563 3.914,5.091c1.528,1.556 3.242,2.863 5.089,3.913l1.064,0.568c3.197,1.601 6.756,2.451 10.467,2.451l72.139,0l0,-15.039l-70.015,0l25.038,-25.039l410.576,0l25.038,25.039l-366.589,0l0,15.039l368.713,0c3.711,0 7.27,-0.851 10.465,-2.45l1.064,-0.568c1.848,-1.05 3.562,-2.356 5.089,-3.913c1.557,-1.528 2.863,-3.243 3.914,-5.091l0.567,-1.062c1.599,-3.196 2.449,-6.755 2.449,-10.466l0.002,-464.9l0,0zm-471.923,437.738l-25.038,25.038l0,-460.652l25.038,25.038l0,410.576zm416.806,-4.405l-401.766,0l0,-401.766l401.766,0l0,401.767l0,0l0,-0.001zm40.078,29.443l-25.038,-25.038l0,-410.576l25.038,-25.038l0,460.652z"/>
  <g id="svg_9">
   <rect id="svg_10" fill="#FFFFFF" height="15.039" width="16.031" y="424.825" x="71.648"/>
   <rect id="svg_11" fill="#FFFFFF" height="15.039" width="16.031" y="72.139" x="71.648"/>
   <rect id="svg_12" fill="#FFFFFF" height="15.039" width="16.031" y="72.139" x="424.324"/>
   <rect id="svg_13" fill="#FFFFFF" height="15.039" width="16.031" y="424.825" x="424.324"/>
  </g>
  <g id="svg_14">
   <rect id="svg_15" fill="#231F20" height="15.039" width="304.59" y="424.825" x="103.702"/>
   <rect id="svg_16" fill="#231F20" height="15.039" width="304.59" y="72.139" x="103.702"/>
   <rect id="svg_17" fill="#231F20" height="304.59" width="15.039" y="103.702" x="72.139"/>
   <rect id="svg_18" fill="#231F20" height="304.59" width="15.039" y="103.702" x="424.825"/>
  </g>
  <g id="svg_19">
   <polygon id="svg_20" fill="#FFFFFF" points="112.218,327.643 191.38,327.643 191.38,280.047 176.341,280.047 176.341,312.604    127.257,312.604 127.257,199.395 176.341,199.395 176.341,231.954 191.38,231.954 191.38,184.356 112.218,184.356  "/>
   <path id="svg_21" fill="#FFFFFF" d="m223.443,328.139l0,-64.62l72.139,0l0,-79.164l-87.179,0l0,143.783l15.04,0l0,0.001zm0,-128.744l57.1,0l0,49.085l-57.1,0l0,-49.085z"/>
   <polygon id="svg_22" fill="#FFFFFF" points="312.605,183.861 312.605,327.643 399.783,327.643 399.783,183.861 384.744,183.861    384.744,312.604 327.644,312.604 327.644,183.861  "/>
  </g>
  <g id="svg_23">
   <polygon id="svg_24" fill="#231F20" points="399.783,112.217 112.218,112.217 112.218,159.318 328.139,159.318 328.139,144.279    127.257,144.279 127.257,127.256 384.744,127.256 384.744,144.279 352.185,144.279 352.185,159.318 399.783,159.318  "/>
   <rect id="svg_25" fill="#231F20" height="15.039" width="16.031" y="352.686" x="111.723"/>
   <rect id="svg_26" fill="#231F20" height="15.039" width="16.031" y="352.686" x="143.787"/>
   <rect id="svg_27" fill="#231F20" height="15.039" width="16.031" y="352.686" x="384.249"/>
   <rect id="svg_28" fill="#231F20" height="15.039" width="288.557" y="384.74" x="111.723"/>
  </g>
  <g id="svg_29"/>
  <g id="svg_30"/>
  <g id="svg_31"/>
  <g id="svg_32"/>
  <g id="svg_33"/>
  <g id="svg_34"/>
  <g id="svg_35"/>
  <g id="svg_36"/>
  <g id="svg_37"/>
  <g id="svg_38"/>
  <g id="svg_39"/>
  <g id="svg_40"/>
  <g id="svg_41"/>
  <g id="svg_42"/>
  <g id="svg_43"/>
 </g>
</svg>